<svg width="800px" height="800px" viewBox="0 0 24 24" fill="none" xmlns="http://www.w3.org/2000/svg">
<path d="M21 8.03701C21 6.92701 20.104 6.03701 19 6.03701H15.001C14.448 6.03701 14.001 6.48401 14.001 7.03701V13.037C14.001 13.59 14.448 14.037 15.001 14.037H19C20.104 14.037 21 14.93 21 16.037C21 17.144 20.104 18.037 19 18.037H10.001C9.448 18.037 9.001 17.59 9.001 17.037V11.037C9.001 10.484 9.448 10.037 10.001 10.037H14.001C14.554 10.037 15.001 9.59001 15.001 9.03701V3.03701C15.001 2.48401 14.554 2.03701 14.001 2.03701H5.001C3.896 2.03701 3 2.93001 3 4.03701V16.037C3 17.144 3.896 18.037 5.001 18.037H9.001V22.037C9.001 22.59 9.448 23.037 10.001 23.037H19C20.104 23.037 21 22.144 21 21.037V16.037C21 14.93 20.104 14.037 19 14.037H15.001V8.03701H21Z" fill="#000000"/>
</svg>